<svg width="32" height="32" viewBox="0 0 100 100" fill="none" xmlns="http://www.w3.org/2000/svg">
  <defs>
    <linearGradient id="fg" x1="0%" y1="0%" x2="100%" y2="100%">
      <stop offset="0%" stop-color="#4FACFE" />
      <stop offset="50%" stop-color="#7C6DFB" />
      <stop offset="100%" stop-color="#C56CF0" />
    </linearGradient>
    <linearGradient id="fg2" x1="100%" y1="0%" x2="0%" y2="100%">
      <stop offset="0%" stop-color="#C56CF0" />
      <stop offset="50%" stop-color="#7C6DFB" />
      <stop offset="100%" stop-color="#4FACFE" />
    </linearGradient>
  </defs>
  <rect x="22" y="18" width="12" height="12" rx="3" fill="url(#fg)" transform="rotate(-10 28 24)" />
  <path d="M28 38 C28 38 28 75 28 75 C28 82 35 88 48 88 C65 88 72 75 72 58 C72 42 62 32 48 32 C42 32 38 34 35 37 L35 38 C35 38 35 75 35 75" stroke="url(#fg)" stroke-width="12" stroke-linecap="round" stroke-linejoin="round" fill="none" />
  <path d="M55 40 C65 45 68 55 66 65 C64 72 58 78 50 80" stroke="url(#fg2)" stroke-width="6" stroke-linecap="round" fill="none" opacity="0.6" />
</svg>
